<svg width="300" height="300" viewBox="0 0 300 300" fill="none" xmlns="http://www.w3.org/2000/svg">
<g clip-path="url(#clip0_1396_392)">
<path d="M0 217.5V82.5C0 36.9 36.9 0 82.5 0H217.5C263.1 0 300 36.9 300 82.5V217.5C300 263.1 263.1 300 217.5 300H82.5C36.9 300 0 263.1 0 217.5Z" fill="#F21859"/>
<mask id="mask0_1396_392" style="mask-type:luminance" maskUnits="userSpaceOnUse" x="20" y="0" width="301" height="300">
<path fill-rule="evenodd" clip-rule="evenodd" d="M20.3379 217.5V82.5C20.3379 36.9 57.2379 0 102.838 0H237.838C283.438 0 320.338 36.9 320.338 82.5V217.5C320.338 263.1 283.438 300 237.838 300H102.838C57.2379 300 20.3379 263.1 20.3379 217.5Z" fill="white"/>
</mask>
<g mask="url(#mask0_1396_392)">
<path d="M83.5314 69.4934L62.2314 90.7934V120.793H99.7314V219.493H83.5314L62.2314 240.793V270.793H194.231L215.531 249.493V219.493H173.531V211.274H219.731L241.031 189.974V150.793V69.4934H83.5314ZM173.531 147.493V120.793H227.231V147.493H173.531Z" fill="#C41353"/>
</g>
<mask id="mask1_1396_392" style="mask-type:luminance" maskUnits="userSpaceOnUse" x="20" y="0" width="301" height="300">
<path fill-rule="evenodd" clip-rule="evenodd" d="M20.3379 217.5V82.5C20.3379 36.9 57.2379 0 102.838 0H237.838C283.438 0 320.338 36.9 320.338 82.5V217.5C320.338 263.1 283.438 300 237.838 300H102.838C57.2379 300 20.3379 263.1 20.3379 217.5Z" fill="white"/>
</mask>
<g mask="url(#mask1_1396_392)">
<path d="M99.7314 78.1933H62.2314L83.5314 99.4933H99.7314V78.1933ZM227.231 78.1933H152.231L173.531 99.4933H227.231V78.1933ZM189.731 78.1933L211.031 99.4933H241.031L219.731 78.1933H189.731ZM152.231 156.193L173.531 177.493H241.031L219.731 156.193H152.231ZM62.2314 228.193L83.5314 249.493H215.531L194.231 228.193H62.2314Z" fill="#04232D"/>
</g>
<mask id="mask2_1396_392" style="mask-type:luminance" maskUnits="userSpaceOnUse" x="20" y="0" width="301" height="300">
<path fill-rule="evenodd" clip-rule="evenodd" d="M20.3379 217.5V82.5C20.3379 36.9 57.2379 0 102.838 0H237.838C283.438 0 320.338 36.9 320.338 82.5V217.5C320.338 263.1 283.438 300 237.838 300H102.838C57.2379 300 20.3379 263.1 20.3379 217.5Z" fill="white"/>
</mask>
<g mask="url(#mask2_1396_392)">
<path d="M219.731 78.1934L241.031 99.4934V69.4933L219.731 48.1933V78.1934ZM173.531 99.4934L152.231 78.1934V156.193L173.531 177.493V99.4934ZM173.531 177.493L152.231 156.193V198.193H173.531V177.493ZM194.231 228.193L215.531 249.493V219.493L194.231 198.193V228.193Z" fill="#094A5E"/>
<path d="M241.031 144.915L219.731 123.506V93.4652L241.031 114.765V144.915Z" fill="#094A5E"/>
</g>
<path d="M173.529 144.801L152.229 123.501H219.719L241.03 144.906L173.529 144.801Z" fill="#04232D"/>
<mask id="mask3_1396_392" style="mask-type:luminance" maskUnits="userSpaceOnUse" x="20" y="0" width="301" height="300">
<path fill-rule="evenodd" clip-rule="evenodd" d="M20.3379 217.5V82.5C20.3379 36.9 57.2379 0 102.838 0H237.838C283.438 0 320.338 36.9 320.338 82.5V217.5C320.338 263.1 283.438 300 237.838 300H102.838C57.2379 300 20.3379 263.1 20.3379 217.5Z" fill="white"/>
</mask>
<g mask="url(#mask3_1396_392)">
<path d="M219.731 48.1934V78.1934H152.231V93.5001H219.731V123.5H152.231V138.799H219.731V168.799H152.231V198.193H194.231V228.193H62.2314V198.193H99.7314V78.1934H62.2314V48.1934H219.731Z" fill="white"/>
</g>
<path d="M173.505 190.064L152.205 168.764H219.731L241.031 190.064H173.505Z" fill="#04232D"/>
<path d="M241.031 190.064L219.731 168.764V138.764L241.031 160.064V190.064Z" fill="#094A5E"/>
</g>
<defs>
<clipPath id="clip0_1396_392">
<rect width="300" height="300" fill="white"/>
</clipPath>
</defs>
</svg>
