<svg width="300" height="300" viewBox="0 0 300 300" fill="none" xmlns="http://www.w3.org/2000/svg">
<g clip-path="url(#clip0_2008_109)">
<path d="M0 217.5V82.5C0 36.9 36.9 0 82.5 0H217.5C263.1 0 300 36.9 300 82.5V217.5C300 263.1 263.1 300 217.5 300H82.5C36.9 300 0 263.1 0 217.5Z" fill="#F21859"/>
<path d="M80.5153 63.4865L58.0002 85.973V117.644H97.6394V221.842H80.5153L58.0002 244.329V276H197.53L220.045 253.513V221.842H175.649V213.165H224.485L247 190.679V63.4865H80.5153ZM175.649 145.832V117.644H232.413V145.832H175.649Z" fill="#C41353"/>
<path d="M197.53 231.027L220.045 253.513H80.5151L58.0002 231.027H197.53Z" fill="#04232D"/>
<path d="M224.485 155.016L247 177.502H175.649L153.134 155.016H224.485Z" fill="#04232D"/>
<path d="M97.6394 72.6712V95.1575H80.5151L58.0002 72.6712H97.6394Z" fill="#04232D"/>
<path d="M232.413 72.6712V80.589L247 95.1575H175.649L153.134 72.6712H232.413Z" fill="#04232D"/>
<path d="M224.485 72.6711L247 95.1576V63.4864L224.485 40.9999V72.6711ZM175.649 95.1576L153.134 72.6711V155.016L175.649 177.503V95.1576ZM175.649 177.503L153.134 155.016V199.356H175.649V177.503ZM197.53 231.027L220.045 253.513V221.842L197.53 199.356V231.027Z" fill="#094A5E"/>
<path d="M247 143.109L224.485 120.508V88.7936L247 111.28V143.109Z" fill="#094A5E"/>
<path d="M175.647 142.989L153.132 120.502H224.472L246.999 143.1L175.647 142.989Z" fill="#04232D"/>
<path d="M224.484 41.0002V72.6714H153.134V88.8307H224.484V120.502H153.134V136.653H224.484V168.324H153.134V199.356H197.53V231.027H58V199.356H97.6392V72.6714H58V41.0002H224.484Z" fill="white"/>
<path d="M175.621 190.774L153.106 168.287H224.485L247 190.774H175.621Z" fill="#04232D"/>
<path d="M247 190.774L224.485 168.287V136.616L247 159.102V190.774Z" fill="#094A5E"/>
</g>
<defs>
<clipPath id="clip0_2008_109">
<rect width="300" height="300" fill="white"/>
</clipPath>
</defs>
</svg>
