<svg xmlns="http://www.w3.org/2000/svg" viewBox="0 0 24 24">
<path d="M17 5C17 5.53043 17.2107 6.03914 17.5858 6.41421C17.9609 6.78929 18.4696 7 19 7C19.5304 7 20.0391 6.78929 20.4142 6.41421C20.7893 6.03914 21 5.53043 21 5C21 4.46957 20.7893 3.96086 20.4142 3.58579C20.0391 3.21071 19.5304 3 19 3C18.4696 3 17.9609 3.21071 17.5858 3.58579C17.2107 3.96086 17 4.46957 17 5Z" stroke="black" stroke-width="2" stroke-linecap="round" stroke-linejoin="round"/>
<path d="M3 19C3 19.5304 3.21071 20.0391 3.58579 20.4142C3.96086 20.7893 4.46957 21 5 21C5.53043 21 6.03914 20.7893 6.41421 20.4142C6.78929 20.0391 7 19.5304 7 19C7 18.4696 6.78929 17.9609 6.41421 17.5858C6.03914 17.2107 5.53043 17 5 17C4.46957 17 3.96086 17.2107 3.58579 17.5858C3.21071 17.9609 3 18.4696 3 19Z" stroke="black" stroke-width="2" stroke-linecap="round" stroke-linejoin="round"/>
<path d="M4 14L14 4" stroke="black" stroke-width="2" stroke-linecap="round" stroke-linejoin="round" stroke-dasharray="1.2 3"/>
<path d="M19 7L19 19" stroke="black" stroke-width="2" stroke-linecap="round" stroke-linejoin="round"/>
<path d="M7 19L19 19" stroke="black" stroke-width="2" stroke-linecap="round" stroke-linejoin="round"/>
</svg>