<svg xmlns="http://www.w3.org/2000/svg" class="icon icon-tabler icon-tabler-bone" width="24" height="24" viewBox="0 0 24 24" stroke-width="2" stroke="currentColor" fill="none" stroke-linecap="round" stroke-linejoin="round">
  <path stroke="none" d="M0 0h24v24H0z" fill="none"/>
  <path d="M9.5 14.5l5 -5" />
  <path d="M9.5 14.5a2 2 0 1 1 -2.5 2.5a2 2 0 1 1 -2.5 -2.5a2 2 0 1 1 2.5 -2.5a2 2 0 1 1 2.5 2.5z" />
  <path d="M14.5 9.5a2 2 0 1 1 2.5 -2.5a2 2 0 1 1 2.5 2.5a2 2 0 1 1 -2.5 2.5a2 2 0 1 1 -2.5 -2.5z" />
</svg>
